<svg width="114" height="46" viewBox="0 0 114 46" fill="none" xmlns="http://www.w3.org/2000/svg">
<path d="M23.731 13.24C23.731 13.24 24.3176 13.2 25.491 13.12C27.3843 13.12 28.7843 13.48 29.691 14.2C30.6243 14.8933 31.091 15.8933 31.091 17.2C31.091 18.48 30.5043 19.9867 29.331 21.72C28.1576 23.4533 26.6376 25.0267 24.771 26.44H27.051C27.9843 26.44 28.6376 26.4 29.011 26.32C29.3843 26.24 29.5976 26.2 29.651 26.2C30.0243 26.2 30.211 26.4 30.211 26.8C30.211 27.2 29.9443 27.4133 29.411 27.44C27.3576 27.44 25.3843 27.4133 23.491 27.36C20.5043 29.2533 17.571 30.2 14.691 30.2C13.331 30.2 12.251 29.9467 11.451 29.44C10.651 28.9333 10.251 28.4267 10.251 27.92C10.251 27.3867 10.4643 26.9733 10.891 26.68C11.3443 26.3867 11.971 26.24 12.771 26.24C15.891 26.24 19.3843 26.3067 23.251 26.44C24.851 25.1333 26.131 23.6267 27.091 21.92C28.051 20.1867 28.531 18.6267 28.531 17.24C28.531 15.0267 27.3443 13.92 24.971 13.92C24.0376 13.92 23.0643 14.0667 22.051 14.36C21.0643 14.6533 20.4643 14.8667 20.251 15C20.0643 15.1067 19.9443 15.16 19.891 15.16C19.731 15.16 19.651 15.0533 19.651 14.84C19.651 14.6 19.9976 14.32 20.691 14C23.731 12.5333 26.7043 10.5867 29.611 8.16001C32.5176 5.70668 33.971 3.96001 33.971 2.92001C33.971 2.44001 33.5976 2.20001 32.851 2.20001C29.811 2.22668 25.6376 4.50667 20.331 9.04001C19.2643 11.7867 17.5043 15.16 15.051 19.16C12.6243 23.16 10.0776 26.7333 7.41098 29.88C4.74431 33.0533 2.75764 34.64 1.45098 34.64C0.650977 34.64 0.250977 34.2267 0.250977 33.4C0.250977 31.5067 2.03764 28.1333 5.61098 23.28C9.21098 18.4267 13.2776 13.96 17.811 9.88001C18.611 7.93334 19.011 6.52001 19.011 5.64001C19.011 4.73334 18.7976 4.02667 18.371 3.52001C17.9443 2.98668 17.3176 2.60001 16.491 2.36001C15.1843 2.01334 13.7976 1.84001 12.331 1.84001C10.891 1.84001 9.78431 1.88001 9.01098 1.96001C8.23764 2.01334 7.29098 2.14668 6.17098 2.36001C5.07764 2.54668 4.18431 2.89334 3.49098 3.40001C2.79764 3.88001 2.45098 4.50667 2.45098 5.28001C2.45098 6.02668 2.82431 6.61334 3.57098 7.04001C4.31764 7.44001 5.22431 7.72001 6.29098 7.88001C7.38431 8.04001 8.46431 8.21334 9.53098 8.40001C10.5976 8.58667 11.5043 8.96001 12.251 9.52001C12.9976 10.0533 13.371 10.8133 13.371 11.8C13.371 12.0667 13.3043 12.2 13.171 12.2C13.0643 12.2 12.971 12.16 12.891 12.08C12.8376 12 12.731 11.84 12.571 11.6C12.331 11.2533 11.971 10.9867 11.491 10.8C11.0376 10.6133 10.3176 10.44 9.33098 10.28C8.37098 10.0933 7.45098 9.90668 6.57098 9.72001C5.71764 9.50668 4.85098 9.24001 3.97098 8.92001C3.09098 8.60001 2.38431 8.14668 1.85098 7.56001C1.31764 6.97334 1.05098 6.29334 1.05098 5.52001C1.05098 4.72001 1.38431 4.01334 2.05098 3.40001C2.71764 2.78667 3.59764 2.30667 4.69098 1.96001C6.93098 1.29334 9.26431 0.960009 11.691 0.960009C17.9843 0.960009 21.131 2.61334 21.131 5.92001C21.131 6.21334 21.0643 6.65334 20.931 7.24001C26.3176 2.89334 30.691 0.720009 34.051 0.720009C35.5443 0.720009 36.291 1.17334 36.291 2.08001C36.291 3.38668 34.9176 5.24001 32.171 7.64001C29.451 10.04 26.6376 11.9067 23.731 13.24ZM2.45098 33.48C3.22431 33.48 5.29098 31.0133 8.65098 26.08C12.0376 21.12 14.7443 16.5067 16.771 12.24C12.771 16.0533 9.22431 20.0267 6.13098 24.16C3.06431 28.2667 1.53098 31.0667 1.53098 32.56C1.53098 33.1733 1.83764 33.48 2.45098 33.48ZM22.011 27.32L14.771 27.16C12.7176 27.16 11.691 27.4667 11.691 28.08C11.691 28.4267 12.0376 28.7467 12.731 29.04C13.4243 29.36 14.2243 29.52 15.131 29.52C17.5043 29.52 19.7976 28.7867 22.011 27.32Z" fill="#222222"/>
<path d="M44.971 22.36C45.1576 22.2267 45.331 22.16 45.491 22.16C45.651 22.16 45.731 22.2533 45.731 22.44V22.52C42.9576 24.8133 40.651 26.5333 38.811 27.68C36.971 28.8267 35.3043 29.4 33.811 29.4C32.611 29.4 32.011 28.8133 32.011 27.64C32.011 25.9067 32.891 24.1333 34.651 22.32C36.411 20.48 37.891 19.56 39.091 19.56C39.7576 19.56 40.091 19.9333 40.091 20.68C39.9576 22.1467 37.851 24.12 33.771 26.6V27C33.771 27.88 34.2243 28.32 35.131 28.32C36.0643 28.32 37.0643 28.0133 38.131 27.4C40.211 26.1733 42.1576 24.7733 43.971 23.2L44.971 22.36ZM38.051 20.8C37.4643 20.8 36.7043 21.2933 35.771 22.28C34.8643 23.2667 34.251 24.3867 33.931 25.64C35.211 24.8667 36.291 24.0533 37.171 23.2C38.051 22.32 38.491 21.7067 38.491 21.36C38.491 20.9867 38.3443 20.8 38.051 20.8Z" fill="#222222"/>
<path d="M53.5235 25.04C52.8835 24.1867 52.0568 23 51.0435 21.48C44.0301 20.7867 40.5235 19.32 40.5235 17.08C40.5235 16.5733 40.7768 16.16 41.2835 15.84C41.8168 15.52 42.6168 15.36 43.6835 15.36C46.3501 15.36 49.0035 17.0533 51.6435 20.44C54.3101 20.7067 57.3368 20.84 60.7235 20.84H61.1635C64.5768 18.7867 67.7501 16.72 70.6835 14.64C71.8835 12.4533 72.9235 10.6533 73.8035 9.24001C74.6835 7.80001 75.7501 6.30668 77.0035 4.76001C79.4835 1.61334 82.0968 0.0400085 84.8435 0.0400085C85.5635 0.0400085 85.9235 0.360008 85.9235 1.00001C85.9235 2.54668 84.6435 4.57334 82.0835 7.08001C79.5235 9.58667 76.1235 12.28 71.8835 15.16C70.6035 17.6133 69.6435 19.4 69.0035 20.52C72.7368 20.2267 75.4301 19.7733 77.0835 19.16H77.2035C77.3101 19.16 77.3635 19.24 77.3635 19.4C77.3635 19.5333 77.2701 19.7333 77.0835 20C75.0835 20.6133 72.2035 21.0933 68.4435 21.44C67.0035 23.92 65.6035 25.8533 64.2435 27.24C62.9101 28.6 61.5635 29.28 60.2035 29.28C58.0168 29.28 55.9501 28.0667 54.0035 25.64C50.1901 27.56 46.8168 29.0267 43.8835 30.04C43.4835 30.1733 43.0168 30.24 42.4835 30.24C41.9768 30.24 41.7235 30.04 41.7235 29.64C41.7235 29.4267 41.8301 29.2267 42.0435 29.04C42.2568 28.88 42.5368 28.8 42.8835 28.8C45.0168 28.8 48.5635 27.5467 53.5235 25.04ZM61.1635 21.84C59.1368 22.9867 57.1368 24.0667 55.1635 25.08C56.9501 27.2933 58.5768 28.4 60.0435 28.4C61.1368 28.4 62.2168 27.8133 63.2835 26.64C64.3768 25.4667 65.5768 23.7733 66.8835 21.56C65.2568 21.6933 63.3501 21.7867 61.1635 21.84ZM83.7235 1.00001C81.8835 1.00001 80.0301 2.22667 78.1635 4.68001C76.6168 6.76001 74.9235 9.50668 73.0835 12.92C76.4435 10.44 79.1368 8.18668 81.1635 6.16001C83.1901 4.10668 84.2035 2.52001 84.2035 1.40001C84.2035 1.13334 84.0435 1.00001 83.7235 1.00001ZM42.4435 16.92C42.4435 18.44 45.0168 19.5467 50.1635 20.24C48.0835 17.4667 45.9901 16.08 43.8835 16.08C42.9235 16.08 42.4435 16.36 42.4435 16.92ZM54.6835 24.48C56.3368 23.6 57.9235 22.72 59.4435 21.84H59.2835C56.9635 21.84 54.7235 21.76 52.5635 21.6C53.5768 23.0133 54.2835 23.9733 54.6835 24.48ZM69.6035 16.68C68.1635 17.64 65.9235 19.0267 62.8835 20.84C64.9368 20.7867 66.4435 20.72 67.4035 20.64C67.9101 19.76 68.6435 18.44 69.6035 16.68Z" fill="#222222"/>
<path d="M89.6041 22.32C89.7908 22.1867 89.9641 22.12 90.1241 22.12C90.2841 22.12 90.3641 22.2 90.3641 22.36V22.48C88.2574 24.24 86.1908 25.8133 84.1641 27.2C82.1374 28.7467 80.7241 29.52 79.9241 29.52C79.1508 29.52 78.7641 29.2 78.7641 28.56C78.7641 27.8667 79.2708 26.6933 80.2841 25.04C81.2974 23.3867 81.8041 22.5067 81.8041 22.4C81.8041 22.2667 81.7508 22.2 81.6441 22.2C81.2974 22.2 80.2308 22.9733 78.4441 24.52C76.6841 26.04 75.1374 27.4533 73.8041 28.76C73.2974 29.2133 72.9374 29.44 72.7241 29.44C72.5374 29.44 72.4441 29.2933 72.4441 29C72.4441 28.7067 72.6174 28.3333 72.9641 27.88L86.9241 6.60001C87.2174 6.14668 87.6041 5.92001 88.0841 5.92001C88.5908 5.92001 88.8441 6.08001 88.8441 6.40001C88.8441 6.58668 88.7641 6.78668 88.6041 7.00001C88.4708 7.21334 87.5774 8.49334 85.9241 10.84C84.2708 13.16 83.3108 14.5333 83.0441 14.96C82.8041 15.3867 81.6441 17.1467 79.5641 20.24C77.5108 23.3333 76.4174 24.9733 76.2841 25.16C76.1774 25.32 76.1241 25.4533 76.1241 25.56C76.1241 25.6667 76.1641 25.72 76.2441 25.72C76.3508 25.72 76.4174 25.7067 76.4441 25.68C77.2974 24.8267 78.4574 23.84 79.9241 22.72C81.4174 21.5733 82.4441 21 83.0041 21C83.2174 21 83.4041 21.08 83.5641 21.24C83.7241 21.3733 83.8041 21.6133 83.8041 21.96C83.8041 22.28 83.2841 23.1867 82.2441 24.68C81.2041 26.1467 80.6841 27.1067 80.6841 27.56C80.6841 27.9867 80.8174 28.2 81.0841 28.2C81.3774 28.2 82.0841 27.8267 83.2041 27.08C85.2041 25.7467 87.0441 24.4 88.7241 23.04L89.6041 22.32Z" fill="#222222"/>
<path d="M92.6538 25.56C94.1471 25.56 95.9338 24.72 98.0138 23.04L98.6938 23.24C96.0805 25.4267 93.8271 26.52 91.9338 26.52C91.7205 26.52 91.5605 26.5067 91.4538 26.48C90.7338 27.36 89.9471 28.08 89.0938 28.64C88.2405 29.1733 87.4938 29.44 86.8538 29.44C85.8405 29.44 85.3338 28.88 85.3338 27.76C85.3338 26.6133 86.2805 25.0933 88.1738 23.2C87.8538 22.4267 87.6938 21.6133 87.6938 20.76C87.6938 19.9067 88.0005 19.2133 88.6138 18.68C89.2271 18.1467 89.9338 17.88 90.7338 17.88C91.5605 17.88 92.2538 18.1467 92.8138 18.68C93.3738 19.2133 93.6538 19.9733 93.6538 20.96C93.6538 22.48 93.1605 24 92.1738 25.52C92.2805 25.5467 92.4405 25.56 92.6538 25.56ZM91.3738 25.16C92.2005 23.7733 92.6138 22.6 92.6138 21.64C92.6138 20.6533 92.3738 19.9333 91.8938 19.48C91.4138 19 90.9471 18.76 90.4938 18.76C89.5605 18.76 89.0938 19.24 89.0938 20.2C89.0938 21.16 89.3071 22.12 89.7338 23.08C90.1605 24.0133 90.7071 24.7067 91.3738 25.16ZM86.9738 27.52C86.9738 28.0533 87.3204 28.32 88.0138 28.32C88.7071 28.32 89.5871 27.6133 90.6538 26.2C89.9338 25.8267 89.2938 25.1733 88.7338 24.24C87.5605 25.52 86.9738 26.6133 86.9738 27.52Z" fill="#222222"/>
<path d="M113.072 22.48C107.445 27.1733 103.965 29.52 102.632 29.52C101.858 29.52 101.472 29.2133 101.472 28.6C101.472 27.96 102.205 26.7867 103.672 25.08C105.138 23.3467 105.872 22.24 105.872 21.76C105.818 21.7067 105.765 21.68 105.712 21.68C104.965 21.68 103.765 22.2533 102.112 23.4C91.3916 38.4133 85.2983 45.92 83.8316 45.92C83.5383 45.92 83.2983 45.8133 83.1116 45.6C82.8983 45.4133 82.7916 45.12 82.7916 44.72C82.7916 42.88 84.6049 39.8 88.2316 35.48C91.8583 31.16 95.5783 27.52 99.3916 24.56L102.912 19.44V19.4C102.912 19.32 102.858 19.28 102.752 19.28C102.218 20.2133 100.778 21.6133 98.4316 23.48L97.2716 24.36L97.1116 23.76C99.1383 22.1067 101.018 20.4 102.752 18.64C104.485 16.88 105.712 15.5333 106.432 14.6L107.512 13.2C107.885 12.6933 108.298 12.44 108.752 12.44C109.205 12.44 109.432 12.5733 109.432 12.84C109.432 12.9467 109.392 13.04 109.312 13.12C109.258 13.2 108.952 13.64 108.392 14.44C107.858 15.2133 107.058 16.36 105.992 17.88C104.925 19.3733 103.925 20.7867 102.992 22.12C104.538 21.24 105.698 20.8 106.472 20.8C107.272 20.8 107.672 20.96 107.672 21.28C107.672 22.3467 106.605 23.9867 104.472 26.2C103.752 26.9467 103.392 27.44 103.392 27.68C103.392 27.8933 103.578 28 103.952 28C104.352 28 105.045 27.6667 106.032 27C107.978 25.6933 109.778 24.3733 111.432 23.04L112.312 22.32C112.498 22.1867 112.672 22.12 112.832 22.12C112.992 22.12 113.072 22.2 113.072 22.36V22.48ZM84.3516 44.6C85.1783 44.6 89.7516 38.5733 98.0716 26.52C94.5516 29.5067 91.3516 32.76 88.4716 36.28C85.5649 39.8267 84.1116 42.52 84.1116 44.36C84.1116 44.52 84.1916 44.6 84.3516 44.6Z" fill="#222222"/>
</svg>
